<?xml version="1.0" encoding="utf-8"?>
<svg id="svg2" viewBox="-11.114 0 511.114 412.993" xmlns="http://www.w3.org/2000/svg">
  <desc>Source: openclipart.org/detail/209545</desc>
  <g id="freepik--background-complete--inject-1633" transform="matrix(1, 0, 0, 1, 559.636719, 141.063248)">
    <rect y="382.4" width="500" height="0.25" style="fill:#ebebeb"/>
    <rect x="416.78" y="398.49" width="33.12" height="0.25" style="fill:#ebebeb"/>
    <rect x="322.53" y="401.21" width="8.69" height="0.25" style="fill:#ebebeb"/>
    <rect x="396.59" y="389.21" width="19.19" height="0.25" style="fill:#ebebeb"/>
    <rect x="52.46" y="390.89" width="43.19" height="0.25" style="fill:#ebebeb"/>
    <rect x="104.56" y="390.89" width="6.33" height="0.25" style="fill:#ebebeb"/>
    <rect x="131.47" y="395.11" width="93.68" height="0.25" style="fill:#ebebeb"/>
    <circle cx="559.33" cy="170" r="37.91" transform="translate(-69.97 326.66) rotate(-45)" style="fill:#fafafa"/>
    <path d="M70.7,181H174.51s-1.5-8.22-20.71-7.75c3.81-12-6.94-25.1-31.19-25.6s-15.73,19-15.73,19-40.76-7-28.43,7.52C58.25,174.94,54.26,177.52,70.7,181Z" style="fill:#bdbdbd"/>
    <path d="M340.17,232.41c2.36-11.81-17.82-24.75-55-25.25s-18.53,18.77-18.53,18.77-64.21-7-41.2,7.41c-30.62.69-36,3.24-9.87,6.72H374S369.34,232,340.17,232.41Z" style="fill:#bdbdbd"/>
    <path d="M319.57,143.93H427.13s24-13.78-4.45-15.56c4.89-11.78-7.12-31.76-49.11-32.22s-20.22,27.11-20.22,27.11-64-18.45-41.55,10.89C302,134.15,267.13,143.93,319.57,143.93Z" style="fill:#bdbdbd"/>
    <path d="M94.31,286.63h48.33s10.79-6.19-2-7c2.2-5.29-3.2-14.27-22.07-14.48s-9.08,12.18-9.08,12.18-28.76-8.28-18.68,4.9C86.42,282.24,70.74,286.63,94.31,286.63Z" style="fill:#777777"/>
    <path d="M92.13,97.92S78.49,89.18,69,101.61c7.79-7.72,22.6.06,22.6.06s17-7.7,22.6,0C108.17,89.26,92.13,97.92,92.13,97.92Z" style="fill:#777777"/>
    <path d="M165.25,213s-8.2-5.26-13.92,2.22c4.7-4.65,13.61,0,13.61,0s10.2-4.64,13.61,0C174.91,207.82,165.25,213,165.25,213Z" style="fill:#777777"/>
    <path d="M314.77,91.14s-4.1-2.63-7,1.11c2.35-2.33,6.81,0,6.81,0s5.1-2.31,6.8,0C319.6,88.53,314.77,91.14,314.77,91.14Z" style="fill:#777777"/>
    <path d="M415.07,180.92s-4.11-2.63-7,1.11c2.34-2.32,6.8,0,6.8,0s5.1-2.32,6.8,0C419.89,178.31,415.07,180.92,415.07,180.92Z" style="fill:#777777"/>
  </g>
  <g id="freepik--Shadow--inject-1633" transform="matrix(1, 0, 0, 1, 559.636719, 141.063248)">
    <ellipse id="freepik--path--inject-1633" cx="250" cy="416.24" rx="193.89" ry="11.32" style="fill:#777777"/>
  </g>
  <g id="g-1" transform="matrix(1, 0, 0, 1, -14.282988, 6.835498)">
    <rect y="382.4" width="500" height="0.25" style="fill:#ebebeb" x="5"/>
    <rect x="421.78" y="397.49" width="33.12" height="0.25" style="fill:#ebebeb"/>
    <rect x="327.53" y="400.21" width="8.69" height="0.25" style="fill:#ebebeb"/>
    <rect x="401.59" y="388.21" width="19.19" height="0.25" style="fill:#ebebeb"/>
    <rect x="57.46" y="389.89" width="43.19" height="0.25" style="fill:#ebebeb"/>
    <rect x="109.56" y="389.89" width="6.33" height="0.25" style="fill:#ebebeb"/>
    <rect x="136.47" y="394.11" width="93.68" height="0.25" style="fill:#ebebeb"/>
    <circle cx="559.33" cy="170" r="37.91" transform="translate(-69.97 326.66) rotate(-45)" style="fill:#fafafa"/>
    <path d="M 106.82 172.665 L 210.63 172.665 C 210.63 172.665 209.13 164.445 189.92 164.915 C 193.73 152.915 182.98 139.815 158.73 139.315 C 134.48 138.815 143 158.315 143 158.315 C 143 158.315 102.24 151.315 114.57 165.835 C 94.37 166.605 90.38 169.185 106.82 172.665 Z" style="fill:#bdbdbd"/>
    <path d="M 124.887 221.729 C 127.247 209.919 107.067 196.979 69.887 196.479 C 32.707 195.979 51.357 215.249 51.357 215.249 C 51.357 215.249 -12.853 208.249 10.157 222.659 C -20.463 223.349 -25.843 225.899 0.287 229.379 L 158.717 229.379 C 158.717 229.379 154.057 221.319 124.887 221.729 Z" style="fill: rgb(189, 189, 189); transform-box: fill-box; transform-origin: 42.8619% 41.5573%;"/>
    <path d="M319.57,143.93H427.13s24-13.78-4.45-15.56c4.89-11.78-7.12-31.76-49.11-32.22s-20.22,27.11-20.22,27.11-64-18.45-41.55,10.89C302,134.15,267.13,143.93,319.57,143.93Z" style="fill:#777777"/>
    <path d="M 466.792 288.819 L 515.122 288.819 C 515.122 288.819 525.912 282.629 513.122 281.819 C 515.322 276.529 509.922 267.549 491.052 267.339 C 472.182 267.129 481.972 279.519 481.972 279.519 C 481.972 279.519 453.212 271.239 463.292 284.419 C 458.902 284.429 443.222 288.819 466.792 288.819 Z" style="fill:#777777"/>
    <path d="M 113.984 115.973 C 113.984 115.973 100.344 107.233 90.854 119.663 C 98.644 111.943 113.454 119.723 113.454 119.723 C 113.454 119.723 130.454 112.023 136.054 119.723 C 130.024 107.313 113.984 115.973 113.984 115.973 Z" style="fill:#777777"/>
    <path d="M165.25,213s-8.2-5.26-13.92,2.22c4.7-4.65,13.61,0,13.61,0s10.2-4.64,13.61,0C174.91,207.82,165.25,213,165.25,213Z" style="fill:#bdbdbd"/>
    <path d="M314.77,91.14s-4.1-2.63-7,1.11c2.35-2.33,6.81,0,6.81,0s5.1-2.31,6.8,0C319.6,88.53,314.77,91.14,314.77,91.14Z" style="fill:#777777"/>
    <path d="M 354.07 180.92 C 354.07 180.92 349.96 178.29 347.07 182.03 C 349.41 179.71 353.87 182.03 353.87 182.03 C 353.87 182.03 358.97 179.71 360.67 182.03 C 358.89 178.31 354.07 180.92 354.07 180.92 Z" style="fill:#777777"/>
  </g>
  <g id="g-2" transform="matrix(1, 0, 0, 1, 6.555451, -18.17063)">
    <ellipse id="ellipse-1" cx="250" cy="416.24" rx="193.89" ry="11.32" style="fill: rgb(191, 191, 191);"/>
  </g>
</svg>