<svg xmlns="http://www.w3.org/2000/svg" viewBox="0 0 500 500">
    <g id="freepik--background-complete--inject-1633">
        <rect y="382.4" width="500" height="0.25" style="fill:#ebebeb"></rect>
        <rect x="416.78" y="398.49" width="33.12" height="0.25" style="fill:#ebebeb"></rect>
        <rect x="322.53" y="401.21" width="8.69" height="0.25" style="fill:#ebebeb"></rect>
        <rect x="396.59" y="389.21" width="19.19" height="0.25" style="fill:#ebebeb"></rect>
        <rect x="52.46" y="390.89" width="43.19" height="0.25" style="fill:#ebebeb"></rect>
        <rect x="104.56" y="390.89" width="6.33" height="0.25" style="fill:#ebebeb"></rect>
        <rect x="131.47" y="395.11" width="93.68" height="0.25" style="fill:#ebebeb"></rect>
        <circle cx="559.33" cy="170" r="37.91" transform="translate(-69.97 326.66) rotate(-45)" style="fill:#bdbdbd">
        </circle>
        <path
            d="M70.7,181H174.51s-1.5-8.22-20.71-7.75c3.81-12-6.94-25.1-31.19-25.6s-15.73,19-15.73,19-40.76-7-28.43,7.52C58.25,174.94,54.26,177.52,70.7,181Z"
            style="fill:#bdbdbd"></path>
        <path
            d="M340.17,232.41c2.36-11.81-17.82-24.75-55-25.25s-18.53,18.77-18.53,18.77-64.21-7-41.2,7.41c-30.62.69-36,3.24-9.87,6.72H374S369.34,232,340.17,232.41Z"
            style="fill:#bdbdbd"></path>
        <path
            d="M319.57,143.93H427.13s24-13.78-4.45-15.56c4.89-11.78-7.12-31.76-49.11-32.22s-20.22,27.11-20.22,27.11-64-18.45-41.55,10.89C302,134.15,267.13,143.93,319.57,143.93Z"
            style="fill:#bdbdbd"></path>
        <path
            d="M94.31,286.63h48.33s10.79-6.19-2-7c2.2-5.29-3.2-14.27-22.07-14.48s-9.08,12.18-9.08,12.18-28.76-8.28-18.68,4.9C86.42,282.24,70.74,286.63,94.31,286.63Z"
            style="fill:#777777"></path>
        <path
            d="M92.13,97.92S78.49,89.18,69,101.61c7.79-7.72,22.6.06,22.6.06s17-7.7,22.6,0C108.17,89.26,92.13,97.92,92.13,97.92Z"
            style="fill:#777777"></path>
        <path
            d="M165.25,213s-8.2-5.26-13.92,2.22c4.7-4.65,13.61,0,13.61,0s10.2-4.64,13.61,0C174.91,207.82,165.25,213,165.25,213Z"
            style="fill:#bdbdbd"></path>
        <path
            d="M314.77,91.14s-4.1-2.63-7,1.11c2.35-2.33,6.81,0,6.81,0s5.1-2.31,6.8,0C319.6,88.53,314.77,91.14,314.77,91.14Z"
            style="fill:#777777"></path>
        <path
            d="M415.07,180.92s-4.11-2.63-7,1.11c2.34-2.32,6.8,0,6.8,0s5.1-2.32,6.8,0C419.89,178.31,415.07,180.92,415.07,180.92Z"
            style="fill:#777777"></path>
    </g>
    <g id="freepik--Shadow--inject-1633">
        <ellipse id="freepik--path--inject-1633" cx="250" cy="416.24" rx="193.89" ry="11.32" style="fill:#777777">
        </ellipse>
    </g>
</svg>